<svg xmlns="http://www.w3.org/2000/svg" viewBox="0 0 203.62 96.71"><path d="M8.08,51.29l2.34,6.88.34-2.26-.21-9.67L11.11,43,9.45,37.33S.25,30.2,0,30.2l6.65,6.34.2.93,1.6,4.83L7.05,50ZM13,13l-.07,8.27-.24,1.91.74,1.66L14.6,29l.91,1-2-16.89L12,9.42l0,.75ZM47.29,25,41.18,36.6l1.13-1L48.7,30.1l.79-.75,1.34-1.85,1.69-10.63-1.91-3.61L48.47,8,43.76,0l3.92,8.75,2.24,7.14-2,8.18Zm7,49.67L53.13,74l5.75-1.29-5.46-1.09-7.34-1.31s-2.54.52-2.71.53a12.63,12.63,0,0,0-1.62,1.08s-2.76.77-2.93.77-9.19,2.67-8.9,2.66,4.94.24,4.94.24l4.84,1.13,0,1,2.9,5.81,5.15-7,.82-1.38,1.25.19,8.47,2.57ZM38.11,72.25l3.53-.93,1.45-1.11,5.39-1.08,7.86,1.32.82-.1-6-2.78-.83-.84-11.55-5-1-.08-1.39.16,1.18-.5,10.27-1,1.78-1.55-1.34,0L36.21,55.08l-2.35,2.5.52-1.11,3.55-5.92.84-3.13L52.51,33.83l7.09-9.34,3.78-8.12L67.85,3.8l0-1.08L62.38,14.53l-2,4.09L49.81,30l-8.5,7.17-8.12,4.55L31,48.86l1.35-7.17-2.66-6.5-1.29-1-7-7.48,5.85,8.15L29.32,41,28.24,46.1l-.49,1-4.31,4.42-4,2.62-1.06,1.5-.76-2.38L18,49.72l.31-.61-1.74-3.46-1-6.28L15.13,31l-.78-1L13,25,9.81,17.77,5.26,9.5l0,1.13L8,16.11l3.32,10.76.4,3.38.3,2.42-.17,8.16L11,46.52,11.2,56.9l-1,9-.69,2.59,1.14,2.72L9.51,79.7l.1.6L8.4,81.75l-.5,5,.17,9.91.49-.21,1.79-3.43,5.82-8.31,1.24-.85.28-.27,6.07-2,.54-1.2,6.05-3.25.93-.86-2.83-.85ZM22.82,69.69,20.1,73.5l-.51.23.92-3,2.47-5ZM74.73,82.21c.23,0,.33-.06.33-.17s0-.12-.17-.12-.64,0-.93-.08c-.63-.09-.75-.55-.81-1.15C73,79.82,73,78.17,73,76.18V72.51c0-3.24,0-3.83,0-4.49s.21-1.08.77-1.19a3.28,3.28,0,0,1,.52-.06c.09,0,.17,0,.17-.13s-.1-.16-.33-.16c-.63,0-1.94.06-2,.06s-1.42-.06-2.35-.06c-.23,0-.33,0-.33.16s.08.13.16.13a4.08,4.08,0,0,1,.71.06c.69.15.85.48.89,1.19s0,1.25,0,4.49V73a.11.11,0,0,1-.12.12H62.35c-.06,0-.13,0-.13-.12v-.44c0-3.24,0-3.83.05-4.49s.2-1.08.77-1.19a3.05,3.05,0,0,1,.52-.06c.08,0,.16,0,.16-.13s-.1-.16-.33-.16c-.63,0-1.94.06-2,.06s-1.42-.06-2.35-.06c-.23,0-.33,0-.33.16s.08.13.16.13a4.08,4.08,0,0,1,.71.06c.69.15.85.48.89,1.19s0,1.25,0,4.49v3.67c0,2,0,3.64-.11,4.51-.08.6-.19,1.06-.6,1.15a3.4,3.4,0,0,1-.63.08C59,81.92,59,82,59,82s.1.17.33.17c.62,0,1.94-.06,2-.06s1.41.06,2.56.06c.23,0,.33-.06.33-.17s0-.12-.16-.12a9.4,9.4,0,0,1-.94-.08c-.62-.09-.75-.55-.81-1.15-.11-.87-.11-2.52-.11-4.51V74c0-.1.07-.12.13-.12h8.82a.12.12,0,0,1,.12.12v2.19c0,2,0,3.64-.1,4.51-.08.6-.19,1.06-.6,1.15a3.4,3.4,0,0,1-.63.08c-.12,0-.16.06-.16.12s.1.17.33.17c.62,0,1.93-.06,2-.06S73.58,82.21,74.73,82.21ZM89.82,66.48c-.4,0-1.9.06-2,.06s-.83-.06-1.37-.06c-.21,0-.34,0-.34.12s.13.15.31.21.34.29.34.58a2,2,0,0,1-.36,1.06c-.41.69-3,5.25-3.45,6.12-.37-.6-3.5-6-3.83-6.57a1.88,1.88,0,0,1-.27-.81.43.43,0,0,1,.27-.38c.19-.08.31-.1.31-.19s0-.14-.27-.14c-.81,0-1.6.06-1.74.06s-1.67-.06-2.06-.06c-.19,0-.27.06-.27.14s.1.15.2.15a2,2,0,0,1,.9.33,5.91,5.91,0,0,1,1.41,1.54c.73,1.08,3.52,5.66,3.66,6a4.29,4.29,0,0,1,.48,2.18v1.79c0,.33,0,1.21-.06,2.08,0,.6-.23,1.06-.64,1.15a3.4,3.4,0,0,1-.63.08c-.12,0-.16.06-.16.12s.1.17.33.17c.62,0,1.93-.06,2-.06s1.41.06,2.56.06c.22,0,.33-.06.33-.17s0-.12-.17-.12-.64,0-.93-.08c-.63-.09-.81-.55-.86-1.15-.06-.87-.06-1.75-.06-2.08V76.82a5,5,0,0,1,.31-2.08,66,66,0,0,1,4-6.62,3.83,3.83,0,0,1,1.1-1.06,2,2,0,0,1,1-.29c.16,0,.27-.06.27-.17S90,66.48,89.82,66.48Zm2.06,14.21c-.08.6-.19,1.06-.6,1.15a3.4,3.4,0,0,1-.63.08c-.12,0-.16.06-.16.12s.1.17.33.17c.62,0,1.93-.06,2-.06s1.41.06,2.55.06c.23,0,.34-.06.34-.17s0-.12-.17-.12a9.23,9.23,0,0,1-.93-.08c-.63-.09-.75-.55-.82-1.15-.1-.87-.1-2.52-.1-4.51V67.62c0-.21,0-.35.17-.39a2.36,2.36,0,0,1,.89-.13,3.62,3.62,0,0,1,2.85,1,4.45,4.45,0,0,1,1.17,3.21,3.46,3.46,0,0,1-3.6,3.39c-.44,0-.56,0-.56.19s.12.14.22.14a3.31,3.31,0,0,0,.44,0,4.83,4.83,0,0,0,5.12-5,3.63,3.63,0,0,0-1-2.48c-.33-.31-1.27-1.18-3.87-1.18-1,0-2.17.06-2.62.06-.17,0-1.42-.06-2.35-.06-.23,0-.34,0-.34.16s.09.13.17.13a4.08,4.08,0,0,1,.71.06c.68.15.85.48.89,1.19s0,1.25,0,4.49v3.67C92,78.17,92,79.82,91.88,80.69Zm13,1.46c.31,0,.81,0,1.62.06s2,.06,3.51.06c.82,0,1,0,1.13-.54s.27-1.85.27-2,0-.31-.13-.31-.14.08-.18.31c-.15.86-.4,1.27-.94,1.5a6,6,0,0,1-2,.23c-2,0-2.35-.27-2.41-1.71,0-.43,0-2.85,0-3.55V74.34a.13.13,0,0,1,.14-.14c.36,0,2.42,0,3,.1.81.09,1,.44,1.08.73a2,2,0,0,1,.09.69c0,.1,0,.19.14.19s.15-.23.15-.4,0-.92.08-1.33c.06-.69.17-1,.17-1.17s0-.16-.11-.16-.16.1-.31.27-.48.25-1,.29-3,0-3.31,0c-.1,0-.12-.06-.12-.21V67.5c0-.15,0-.21.12-.21.23,0,2.5,0,2.85.06,1.13.13,1.34.38,1.48.71a2.1,2.1,0,0,1,.13.75c0,.17,0,.27.16.27s.13-.13.15-.23.08-1.16.1-1.37c.06-.59.17-.84.17-1s0-.19-.08-.19-.19.08-.3.11a5.51,5.51,0,0,1-.89.1c-.48,0-4.62,0-4.76,0l-.86,0c-.46,0-1,0-1.5,0-.22,0-.33,0-.33.16s.08.13.17.13a4.08,4.08,0,0,1,.71.06c.68.15.85.48.89,1.19s0,1.25,0,4.49v3.67c0,2,0,3.64-.1,4.51-.09.6-.19,1.06-.61,1.15a3.19,3.19,0,0,1-.62.08c-.12,0-.17.06-.17.12s.11.17.34.17.79,0,1.2,0Zm14.29-.23a9.23,9.23,0,0,1-.93-.08c-.63-.09-.75-.55-.82-1.15-.1-.87-.1-2.52-.1-4.51v-.5c0-.11,0-.17.15-.17l2.55,0a.31.31,0,0,1,.27.13c.42.54,1.4,1.93,2.27,3.08,1.19,1.56,1.92,2.58,2.81,3a4.14,4.14,0,0,0,2.23.4h1.47c.38,0,.5,0,.5-.17s-.08-.12-.18-.12a5.1,5.1,0,0,1-.81-.06,4.38,4.38,0,0,1-2.54-1.5c-1.21-1.29-2.62-3.14-4.33-5.33,1.87-1.73,2.52-3.27,2.52-4.81a3.66,3.66,0,0,0-1.44-2.83,6.41,6.41,0,0,0-3.81-.91c-.64,0-2.22.06-2.45.06s-1.42-.06-2.35-.06c-.23,0-.33,0-.33.16s.08.13.16.13a4.08,4.08,0,0,1,.71.06c.69.15.85.48.89,1.19s.05,1.25.05,4.49v3.67c0,2,0,3.64-.11,4.51-.08.6-.19,1.06-.6,1.15a3.4,3.4,0,0,1-.63.08c-.12,0-.16.06-.16.12s.1.17.33.17c.62,0,1.94-.06,2-.06s1.41.06,2.56.06c.22,0,.33-.06.33-.17S119.29,81.92,119.16,81.92Zm-1.85-14.4a.24.24,0,0,1,.17-.25,6.27,6.27,0,0,1,1.39-.13c2.23,0,3.6,1.56,3.6,4.17a3.79,3.79,0,0,1-1.27,3.2,2.72,2.72,0,0,1-1.56.4,5.6,5.6,0,0,1-2.18-.34.26.26,0,0,1-.15-.25Zm13.4,12.76A11.38,11.38,0,0,0,142,81.57c.25-.15.27-.19.27-1.13V78.11c0-.87,0-1.5,0-2.16s.21-1.09.77-1.19a3.28,3.28,0,0,1,.52-.06c.08,0,.17,0,.17-.13s-.11-.16-.34-.16c-.62,0-1.93.06-2,.06s-1.42-.06-2.36-.06c-.22,0-.33,0-.33.16s.08.13.17.13a4.08,4.08,0,0,1,.71.06c.83.23.93.46.93,2.14v3.54a.75.75,0,0,1-.41.73,5.78,5.78,0,0,1-2.38.44,7.6,7.6,0,0,1-5.45-2.23,8.48,8.48,0,0,1-2.2-5.76A5.94,5.94,0,0,1,136.56,67c2.68,0,4.37.89,4.89,1.68a3.22,3.22,0,0,1,.44,1.38c0,.18,0,.31.14.31s.19-.11.19-.44a27.22,27.22,0,0,1,.14-3c0-.09,0-.17-.25-.19a10.71,10.71,0,0,1-1.68-.21,18.25,18.25,0,0,0-3.18-.35,10.17,10.17,0,0,0-5.54,1.31,7.87,7.87,0,0,0-3.47,6.84A8.14,8.14,0,0,0,130.71,80.28ZM151.19,82c0-.06,0-.12-.17-.12s-.64,0-.93-.08c-.63-.09-.75-.55-.81-1.15-.11-.87-.11-2.52-.11-4.51v-.5c0-.11,0-.17.15-.17l2.56,0a.34.34,0,0,1,.27.13c.41.54,1.39,1.93,2.26,3.08,1.19,1.56,1.92,2.58,2.81,3a4.14,4.14,0,0,0,2.23.4h1.48c.37,0,.5,0,.5-.17s-.09-.12-.19-.12a5.1,5.1,0,0,1-.81-.06,4.38,4.38,0,0,1-2.54-1.5c-1.21-1.29-2.62-3.14-4.33-5.33,1.87-1.73,2.52-3.27,2.52-4.81a3.66,3.66,0,0,0-1.44-2.83,6.38,6.38,0,0,0-3.8-.91c-.65,0-2.23.06-2.46.06s-1.41-.06-2.35-.06c-.23,0-.33,0-.33.16s.08.13.16.13a4.08,4.08,0,0,1,.71.06c.69.15.85.48.9,1.19s0,1.25,0,4.49v3.67c0,2,0,3.64-.11,4.51-.08.6-.18,1.06-.6,1.15a3.4,3.4,0,0,1-.62.08c-.13,0-.17.06-.17.12s.1.17.33.17c.63,0,1.94-.06,2-.06s1.41.06,2.56.06C151.09,82.21,151.19,82.15,151.19,82Zm-2-14.52a.24.24,0,0,1,.17-.25,6.34,6.34,0,0,1,1.39-.13c2.23,0,3.6,1.56,3.6,4.17a3.79,3.79,0,0,1-1.27,3.2,2.72,2.72,0,0,1-1.56.4,5.64,5.64,0,0,1-2.18-.34.26.26,0,0,1-.15-.25Zm23-.75c.17,0,.28-.06.28-.17s-.13-.12-.28-.12c-.39,0-1.89.06-2,.06s-.84-.06-1.38-.06c-.2,0-.33,0-.33.12s.13.15.31.21.34.29.34.58a2,2,0,0,1-.36,1.06c-.41.69-3.06,5.25-3.45,6.12-.38-.6-3.5-6-3.83-6.57a1.75,1.75,0,0,1-.27-.81.42.42,0,0,1,.27-.38c.19-.08.31-.1.31-.19s0-.14-.27-.14c-.81,0-1.6.06-1.75.06s-1.66-.06-2.06-.06c-.18,0-.27.06-.27.14s.11.15.21.15a2,2,0,0,1,.9.33,5.91,5.91,0,0,1,1.41,1.54c.73,1.08,3.52,5.66,3.66,6a4.4,4.4,0,0,1,.48,2.18v1.79c0,.33,0,1.21-.06,2.08,0,.6-.23,1.06-.65,1.15a3.19,3.19,0,0,1-.62.08c-.12,0-.17.06-.17.12s.11.17.34.17c.62,0,1.93-.06,2-.06s1.41.06,2.55.06c.23,0,.34-.06.34-.17s0-.12-.17-.12-.64,0-.94-.08c-.62-.09-.81-.55-.85-1.15-.06-.87-.06-1.75-.06-2.08V76.82a5,5,0,0,1,.31-2.08,66,66,0,0,1,4-6.62,3.83,3.83,0,0,1,1.1-1.06A2,2,0,0,1,172.14,66.77Zm5.67-.29c-1,0-2.17.06-2.62.06-.17,0-1.42-.06-2.35-.06-.23,0-.34,0-.34.16s.09.13.17.13a4.08,4.08,0,0,1,.71.06c.68.15.85.48.89,1.19s0,1.25,0,4.49v3.67c0,2,0,3.64-.1,4.51-.08.6-.19,1.06-.6,1.15a3.4,3.4,0,0,1-.63.08c-.12,0-.17.06-.17.12s.11.17.34.17c.62,0,1.93-.06,2-.06s1.42.06,2.56.06c.23,0,.34-.06.34-.17s0-.12-.17-.12a9.4,9.4,0,0,1-.94-.08c-.62-.09-.75-.55-.81-1.15-.1-.87-.1-2.52-.1-4.51V67.62c0-.21,0-.35.16-.39a2.45,2.45,0,0,1,.9-.13,3.62,3.62,0,0,1,2.85,1,4.43,4.43,0,0,1,1.16,3.21,3.45,3.45,0,0,1-3.59,3.39c-.44,0-.57,0-.57.19s.13.14.23.14a3.31,3.31,0,0,0,.44,0,4.83,4.83,0,0,0,5.12-5,3.67,3.67,0,0,0-1-2.48C181.34,67.35,180.41,66.48,177.81,66.48Zm22.93,15.44a9.4,9.4,0,0,1-.94-.08c-.62-.09-.75-.55-.81-1.15-.1-.87-.1-2.52-.1-4.51V72.51c0-3.24,0-3.83,0-4.49s.21-1.08.77-1.19a3.16,3.16,0,0,1,.52-.06c.08,0,.17,0,.17-.13s-.11-.16-.34-.16c-.62,0-1.93.06-2,.06s-1.41-.06-2.35-.06c-.23,0-.33,0-.33.16s.08.13.17.13a4,4,0,0,1,.7.06c.69.15.86.48.9,1.19s0,1.25,0,4.49V73c0,.1-.06.12-.13.12h-8.82a.11.11,0,0,1-.12-.12v-.44c0-3.24,0-3.83,0-4.49s.21-1.08.77-1.19a3.16,3.16,0,0,1,.52-.06c.08,0,.17,0,.17-.13s-.11-.16-.34-.16c-.62,0-1.93.06-2,.06s-1.41-.06-2.35-.06c-.23,0-.33,0-.33.16s.08.13.17.13a4,4,0,0,1,.7.06c.69.15.86.48.9,1.19s0,1.25,0,4.49v3.67c0,2,0,3.64-.1,4.51-.09.6-.19,1.06-.61,1.15a3.19,3.19,0,0,1-.62.08c-.13,0-.17.06-.17.12s.11.17.34.17c.62,0,1.93-.06,2-.06s1.42.06,2.56.06c.23,0,.34-.06.34-.17s-.05-.12-.17-.12-.64,0-.94-.08c-.62-.09-.75-.55-.81-1.15-.1-.87-.1-2.52-.1-4.51V74a.11.11,0,0,1,.12-.12H197a.12.12,0,0,1,.13.12v2.19c0,2,0,3.64-.1,4.51-.09.6-.19,1.06-.61,1.15a3.19,3.19,0,0,1-.62.08c-.13,0-.17.06-.17.12s.11.17.33.17c.63,0,1.94-.06,2-.06s1.42.06,2.56.06c.23,0,.34-.06.34-.17S200.86,81.92,200.74,81.92ZM65.22,84.22c-.36,0-.66,0-.76,0s-.52,0-.92,0c-.11,0-.18,0-.18.07s0,.06.07.06a2.93,2.93,0,0,1,.44,0c.27.07.34.27.34.85l.1,4.53c-.28-.29-1.26-1.38-2.14-2.33-1.37-1.47-2.7-2.9-2.83-3.06s-.24-.28-.32-.28-.09.1-.09.44v5.11c0,.82-.05,1.07-.27,1.14a1.4,1.4,0,0,1-.37,0s-.07,0-.07,0,.06.08.15.08c.4,0,.77,0,.85,0s.44,0,.95,0c.1,0,.16,0,.16-.08s0,0-.07,0a2.24,2.24,0,0,1-.45,0c-.24-.07-.33-.31-.35-1l-.11-4.27c.28.32,1.29,1.45,2.32,2.56s2.23,2.33,2.33,2.42c.47.47.58.57.65.57s.08,0,.08-.64l0-5.22c0-.54,0-.73.33-.79a.71.71,0,0,1,.21,0c.07,0,.1,0,.1-.06S65.32,84.22,65.22,84.22Zm4.66,5.72s-.06,0-.08.12a.57.57,0,0,1-.36.52,2.59,2.59,0,0,1-.78.08c-.78,0-.92-.1-.94-.6,0-.16,0-1,0-1.3v-.63s0,0,0,0,1,0,1.19,0,.37.13.4.23a.61.61,0,0,1,0,.25s0,.07,0,.07.07-.08.07-.14,0-.34,0-.49a2.86,2.86,0,0,1,.06-.42s0-.06-.05-.06-.06,0-.11.1-.2.09-.38.11H67.76s0,0,0-.08V85.63s0-.08,0-.08,1,0,1.14,0c.42,0,.51.11.56.23a1,1,0,0,1,0,.27c0,.06,0,.1.07.1s.06-.05.07-.08,0-.43,0-.5.06-.31.06-.36,0-.07,0-.07-.07,0-.11,0a3.07,3.07,0,0,1-.36,0c-.17,0-1.81,0-1.87,0l-.91,0c-.09,0-.12,0-.12.06s0,.07.06.07h.27c.26,0,.3.16.32.42s0,.46,0,1.64v1.33A13.78,13.78,0,0,1,67,90.4c0,.23,0,.38-.2.4a2,2,0,0,1-.24,0,.07.07,0,0,0-.07.06s0,.07.13.07L67,91h.34L68,91l1.37,0c.3,0,.38,0,.43-.19a5.43,5.43,0,0,0,.11-.73C69.93,90,69.92,89.94,69.88,89.94Zm14-4.66s0,0-.11,0l-.63,0-.8,0c-.1,0-.14,0-.14,0s0,.08.07.08c.36,0,.42.09.42.22a1.56,1.56,0,0,1-.09.47c-.27,1-1,3.17-1.17,3.79h0l-1.53-4.23c-.1-.26-.16-.36-.22-.36s-.1,0-.21.35l-1.64,4.24h0c-.1-.31-.9-3.09-1-3.57a5.72,5.72,0,0,1-.15-.71.16.16,0,0,1,.11-.16.73.73,0,0,1,.28,0,.09.09,0,0,0,.08-.08s0,0-.15,0l-.82,0-.81,0s0,0,0,0l-.23,0a3.4,3.4,0,0,1-.56,0h-3a5.67,5.67,0,0,1-.61,0,1.67,1.67,0,0,1-.35-.09s-.07.1-.08.15-.17.74-.17.82a.06.06,0,0,0,0,.06s.06,0,.08-.07a1.2,1.2,0,0,1,.13-.24c.11-.18.3-.23.79-.24l1.13,0v3.18c0,.73,0,1.33,0,1.64s-.07.38-.23.41a1,1,0,0,1-.24,0,.06.06,0,0,0-.06.05S72,91,72,91l.81,0s.54,0,1,0c.09,0,.12,0,.12-.07s0-.06-.06-.06l-.35,0c-.25,0-.28-.17-.31-.4s0-.91,0-1.64V85.58l1,0c.75,0,.92.18.94.42v.08c0,.1,0,.13.06.13s.07,0,.07-.1,0-.5,0-.76a.54.54,0,0,1,.19,0c.2.07.29.17.41.57l1.39,4.5c.16.51.22.59.3.59s.15-.08.28-.4c.29-.7,1.35-3.48,1.61-4.14L81,90.67c.1.3.18.39.26.39s.13-.09.34-.65c.31-.84,1.08-3.25,1.43-4.22.15-.42.28-.72.51-.8l.27,0A.08.08,0,0,0,83.88,85.28Zm3-.16a3,3,0,0,0-3.11,3,2.91,2.91,0,0,0,3.07,3A3,3,0,0,0,90,88,2.84,2.84,0,0,0,86.92,85.12Zm.18,5.63c-1.42,0-2.48-1.1-2.48-2.87a2.17,2.17,0,0,1,2.26-2.47c1.23,0,2.34,1,2.34,2.77C89.22,90.38,87.8,90.75,87.1,90.75Zm14.74.09a1.71,1.71,0,0,1-.48-.11c-.38-.15-.47-.25-1.13-.83-.32-.3-2-1.93-2.15-2.15.17-.19,1.5-1.48,1.7-1.65a3,3,0,0,1,.82-.65,1.31,1.31,0,0,1,.44-.1c.06,0,.08,0,.08-.07s0,0-.12,0l-.76,0-.59,0c-.05,0-.08,0-.08,0a.08.08,0,0,0,.07.08c.06,0,.09,0,.09.15s-.2.32-.42.54-1.7,1.69-1.82,1.83h0v-.45c0-1.18,0-1.4,0-1.64s.07-.37.28-.42h.19a.08.08,0,0,0,.07-.07s0-.06-.13-.06l-.78,0-.88,0c-.09,0-.12,0-.12.06s0,.07.06.07h.27c.26,0,.3.16.32.42s0,.46,0,1.64v1.33a13.78,13.78,0,0,1,0,1.64c0,.23,0,.37-.2.4l-.21,0-.17,0a1.36,1.36,0,0,1-.87-.52c-.46-.47-1-1.16-1.64-2a2.22,2.22,0,0,0,1-1.73,1.32,1.32,0,0,0-.55-1,2.6,2.6,0,0,0-1.46-.33l-1,0-.93,0q-.12,0-.12.06a.09.09,0,0,0,.06.07h.27c.26,0,.3.16.32.42s0,.46,0,1.64v1.33a13.78,13.78,0,0,1,0,1.64c0,.23,0,.37-.2.4a1,1,0,0,1-.24,0,.06.06,0,0,0-.06.06s0,.07.12.07l.78,0s.53,0,1,0c.09,0,.12,0,.12-.07s0-.06-.06-.06l-.35,0c-.24,0-.28-.17-.31-.4s0-.9,0-1.63v-.18s0-.06,0-.06l1,0a.15.15,0,0,1,.11,0c.16.21.51.7.84,1.11A3.91,3.91,0,0,0,95,90.81a1.54,1.54,0,0,0,.84.16h.53l.77,0c.07,0,.54,0,.92,0,.09,0,.13,0,.13-.07a.07.07,0,0,0-.07-.06l-.3,0c-.24,0-.28-.17-.3-.4s0-.91,0-1.64V88h0a33.1,33.1,0,0,0,2.38,2.46,1.68,1.68,0,0,0,.95.47,4.61,4.61,0,0,0,.55,0h.4c.13,0,.17,0,.17-.07S101.89,90.84,101.84,90.84ZM93.4,88.15a1,1,0,0,1-.59.13,2.79,2.79,0,0,1-.86-.11.11.11,0,0,1,0-.1V85.63a.1.1,0,0,1,.06-.09,4.89,4.89,0,0,1,.56,0A1.31,1.31,0,0,1,93.88,87,1.35,1.35,0,0,1,93.4,88.15Zm15.76-4-.25,0a4.49,4.49,0,0,1-.63,0h-3.35l-.7,0a1.65,1.65,0,0,1-.39-.11s-.07.11-.09.17-.2.84-.2.93,0,.08,0,.08.06,0,.09-.09a1,1,0,0,1,.15-.28c.14-.21.35-.28.91-.29h1.32v3.77a19.12,19.12,0,0,1,0,1.93c0,.26-.08.46-.26.49a1.17,1.17,0,0,1-.26,0c-.06,0-.07,0-.07,0s0,.08.14.08l.87,0s.61,0,1.1,0c.1,0,.14,0,.14-.08s0,0-.07,0l-.4,0c-.27,0-.32-.23-.35-.49s0-1.07,0-1.93V84.61h1.12c.86,0,1.07.23,1.1.5v.09c0,.13,0,.16.08.16s.06,0,.06-.12,0-.71,0-1C109.21,84.21,109.21,84.16,109.16,84.16Zm4,5.78s-.06,0-.08.12a.56.56,0,0,1-.36.52,2.59,2.59,0,0,1-.78.08c-.78,0-.92-.1-.94-.6,0-.16,0-1,0-1.3v-.63s0,0,.06,0,1,0,1.18,0,.38.13.4.23a.61.61,0,0,1,0,.25s0,.07,0,.07.07-.08.07-.14,0-.34,0-.49.06-.37.06-.42,0-.06,0-.06-.06,0-.12.1-.19.09-.38.11H111c-.05,0-.05,0-.05-.08V85.63s0-.08.05-.08,1,0,1.13,0c.43,0,.51.11.56.23a.74.74,0,0,1,0,.27c0,.06,0,.1.06.1s.06-.05.07-.08a4.57,4.57,0,0,0,0-.5,3.08,3.08,0,0,1,.07-.36s0-.07,0-.07-.07,0-.11,0a3.16,3.16,0,0,1-.35,0c-.18,0-1.82,0-1.87,0l-.91,0c-.09,0-.13,0-.13.06a.09.09,0,0,0,.06.07h.27c.26,0,.3.16.32.42s0,.46,0,1.64v1.33c0,.73,0,1.33,0,1.64s-.06.38-.21.4a2,2,0,0,1-.24,0,.06.06,0,0,0-.06.06s0,.07.12.07l.46,0h.34l.65,0,1.36,0c.3,0,.38,0,.44-.19a7.23,7.23,0,0,0,.1-.73C113.17,90,113.17,89.94,113.12,89.94Zm6-.35c-.06,0-.07,0-.08.11a1.47,1.47,0,0,1-.31.63,1.65,1.65,0,0,1-1.29.36,2.75,2.75,0,0,1-2.83-2.75,2.49,2.49,0,0,1,.71-2,2.4,2.4,0,0,1,1.76-.52,2.52,2.52,0,0,1,1.55.42,1,1,0,0,1,.33.75c0,.11,0,.16.06.16s.08,0,.09-.16,0-.52,0-.77,0-.37,0-.43,0-.08-.1-.08a4.85,4.85,0,0,1-.8-.12,8,8,0,0,0-1.14-.09,3.2,3.2,0,0,0-2.39.82,3,3,0,0,0-.88,2.06,2.82,2.82,0,0,0,1,2.25,3.69,3.69,0,0,0,2.59.81,4.46,4.46,0,0,0,1.41-.17c.14,0,.16-.08.2-.22a8.3,8.3,0,0,0,.19-1S119.13,89.59,119.1,89.59Zm6.6,1.21c-.24,0-.25-.17-.28-.4a16.39,16.39,0,0,1,0-1.64V87.43c0-1.18,0-1.4,0-1.64s.06-.37.27-.42h.2a.08.08,0,0,0,.07-.07s-.05-.06-.14-.06l-.77,0-.89,0c-.09,0-.13,0-.13.06s0,.07.06.07h.27c.26,0,.29.16.31.42s0,.48,0,1.65v.16c0,.05,0,.05,0,.05h-3.28s0,0,0-.05v-.16c0-1.17,0-1.41,0-1.65s.06-.37.27-.42h.2s.06,0,.06-.07,0-.06-.12-.06l-.78,0-.9,0c-.09,0-.12,0-.12.06s0,.07.06.07h.27c.26,0,.3.16.32.42s0,.46,0,1.64v1.33a13.78,13.78,0,0,1,0,1.64c0,.23-.05.37-.2.4a1,1,0,0,1-.24,0,.07.07,0,0,0-.07.06s0,.07.13.07l.78,0s.54,0,1,0c.09,0,.13,0,.13-.07a.06.06,0,0,0-.06-.06l-.36,0c-.23,0-.26-.17-.28-.4s0-.89,0-1.62V88a0,0,0,0,1,0,0h3.28a0,0,0,0,1,0,0v.76c0,.73,0,1.3,0,1.61s-.05.38-.21.41a.93.93,0,0,1-.23,0,.06.06,0,0,0-.06.06s0,.07.12.07l.78,0s.54,0,1,0c.09,0,.13,0,.13-.07a.07.07,0,0,0-.07-.06Zm7.22-5.57-.67,0-.82,0c-.09,0-.15,0-.15,0s0,.08.06.08l.38,0c.24,0,.29.22.3.71l.08,3.8c-.24-.25-1.08-1.16-1.86-2-1.21-1.25-2.35-2.46-2.48-2.58s-.21-.24-.3-.24-.11.08-.11.39v4.34c0,.69,0,.89-.22,1a1.45,1.45,0,0,1-.32,0,.06.06,0,0,0-.06.06c0,.06,0,.07.12.07.36,0,.69,0,.76,0s.38,0,.83,0c.09,0,.14,0,.14-.07a.06.06,0,0,0-.06-.06,2.22,2.22,0,0,1-.39,0c-.22-.06-.29-.24-.3-.87l-.09-3.58c.24.27,1.12,1.2,2,2.15s2,2,2,2.06c.44.4.52.46.6.46s.06,0,.06-.55l0-4.44c0-.45,0-.6.27-.66H133a.09.09,0,0,0,.09-.08S133,85.23,132.92,85.23Zm3.67-.11a3,3,0,0,0-3.11,3,2.91,2.91,0,0,0,3.07,3A3,3,0,0,0,139.7,88,2.84,2.84,0,0,0,136.59,85.12Zm.18,5.63c-1.42,0-2.48-1.1-2.48-2.87a2.18,2.18,0,0,1,2.26-2.47c1.24,0,2.34,1,2.34,2.77C138.89,90.38,137.48,90.75,136.77,90.75ZM144,89.9s-.07,0-.08.1a.88.88,0,0,1-.19.43c-.18.22-.53.23-.94.23-.62,0-.92,0-1-.18s-.16-.58-.16-1.7v-3c0-.26.07-.38.3-.42l.26,0a.07.07,0,0,0,.06-.06s0-.06-.12-.06l-.87,0-.89,0c-.09,0-.13,0-.13.06a.08.08,0,0,0,.07.07h.26c.26,0,.31.16.33.42s0,.46,0,1.64v1.33c0,.73,0,1.33,0,1.64s-.06.37-.21.4a1,1,0,0,1-.24,0,.06.06,0,0,0-.06.06s0,.07.12.07l.46,0h.32l.86,0,1.36,0c.42,0,.45,0,.5-.2a5.17,5.17,0,0,0,.12-.76Q144.08,89.9,144,89.9Zm3.22-4.78a3,3,0,0,0-3.11,3,2.91,2.91,0,0,0,3.07,3A3,3,0,0,0,150.34,88,2.83,2.83,0,0,0,147.24,85.12Zm.18,5.63c-1.42,0-2.48-1.1-2.48-2.87a2.18,2.18,0,0,1,2.26-2.47c1.24,0,2.34,1,2.34,2.77C149.54,90.38,148.12,90.75,147.42,90.75Zm9.2-2.63-.76,0-.93,0c-.09,0-.13,0-.13.06a.08.08,0,0,0,.07.07h.26c.32.07.34.15.34.77v1.31c0,.14-.06.18-.16.23a1.88,1.88,0,0,1-.84.15,2.8,2.8,0,0,1-2-.8,3,3,0,0,1-.83-2.09,2.34,2.34,0,0,1,.78-1.91,2.44,2.44,0,0,1,1.64-.49,2.24,2.24,0,0,1,1.81.59,1,1,0,0,1,.17.5c0,.07,0,.11.06.11s.09,0,.09-.16c0-.76,0-1,0-1.07s0-.07-.1-.07a4,4,0,0,1-.63-.08,6,6,0,0,0-1.2-.13,3.94,3.94,0,0,0-2.09.49,2.83,2.83,0,0,0-1.31,2.48,2.87,2.87,0,0,0,.94,2.16,4.42,4.42,0,0,0,4.25.47c.1,0,.11-.06.11-.41V88.68c0-.27.09-.38.3-.42h.2a.09.09,0,0,0,.06-.07C156.75,88.13,156.71,88.12,156.62,88.12Zm5.47-2.89-.77,0-.54,0c-.08,0-.13,0-.13,0s0,.07.12.09.13.08.13.19a.8.8,0,0,1-.14.39c-.14.25-1.12,1.88-1.28,2.2l-1.43-2.37a.61.61,0,0,1-.11-.29.13.13,0,0,1,.1-.12c.07,0,.13-.06.13-.09s0,0-.11,0l-.68,0-.77,0c-.07,0-.1,0-.1,0a.08.08,0,0,0,.08.08.79.79,0,0,1,.33.1,2.06,2.06,0,0,1,.52.56c.26.4,1.32,2.08,1.39,2.2A1.37,1.37,0,0,1,159,89v.66c0,.12,0,.44,0,.75s-.07.37-.23.4a.93.93,0,0,1-.24,0,.06.06,0,0,0-.06.06s0,.07.13.07l.76,0s.56,0,1,0c.08,0,.13,0,.13-.07a.06.06,0,0,0-.06-.06l-.36,0c-.23,0-.29-.17-.3-.4s0-.63,0-.75V89a1.41,1.41,0,0,1,.1-.75,28.43,28.43,0,0,1,1.52-2.41,1.36,1.36,0,0,1,.39-.38.83.83,0,0,1,.37-.09.1.1,0,0,0,.1-.08S162.14,85.23,162.09,85.23Zm8.34,4.12c-.06,0-.07,0-.09.13a1.63,1.63,0,0,1-.33.75,2,2,0,0,1-1.55.45,3.22,3.22,0,0,1-3.22-3.26,3,3,0,0,1,.8-2.33,2.74,2.74,0,0,1,2.05-.65,3,3,0,0,1,1.79.51,1.23,1.23,0,0,1,.37.91c0,.12,0,.18.07.18s.07-.05.08-.18,0-.63,0-.92,0-.43,0-.5,0-.09-.11-.1a8.65,8.65,0,0,1-.91-.13,7.77,7.77,0,0,0-1.3-.11,3.64,3.64,0,0,0-2.72,1,3.58,3.58,0,0,0-1,2.44,3.42,3.42,0,0,0,1.08,2.64,4.11,4.11,0,0,0,2.94,1,5.2,5.2,0,0,0,1.6-.2c.16-.08.18-.09.23-.26a9.31,9.31,0,0,0,.2-1.15C170.49,89.41,170.47,89.35,170.43,89.35Zm3.67-4.23a3,3,0,0,0-3.11,3,2.91,2.91,0,0,0,3.07,3A3,3,0,0,0,177.21,88,2.84,2.84,0,0,0,174.1,85.12Zm.18,5.63c-1.42,0-2.48-1.1-2.48-2.87a2.18,2.18,0,0,1,2.26-2.47c1.24,0,2.34,1,2.34,2.77C176.4,90.38,175,90.75,174.28,90.75Zm4.1-.79a.48.48,0,0,0-.49.49.47.47,0,0,0,.48.49.49.49,0,0,0,.5-.52A.46.46,0,0,0,178.38,90Zm1.9-.12a.59.59,0,0,0-.55.48c0,.11.3.23.3.64a1.28,1.28,0,0,1-.21.63s-.06.09-.06.12a.07.07,0,0,0,.06.07s.08,0,.12-.08a4.06,4.06,0,0,0,.57-1,1.39,1.39,0,0,0,.09-.35.75.75,0,0,0-.16-.38C180.36,89.87,180.33,89.84,180.28,89.84Zm8-.11c-.05,0-.07,0-.08.11a1.17,1.17,0,0,1-.23.54c-.21.26-.6.26-1.08.26-.69,0-.92-.06-1.07-.2s-.19-.73-.19-2V86.81c0-1.39,0-1.64,0-1.93s.09-.46.35-.5l.3,0a.07.07,0,0,0,.07-.06c0-.05,0-.07-.14-.07l-1,0s-.6,0-1,0c-.09,0-.14,0-.14.07a.07.07,0,0,0,.07.06,1.55,1.55,0,0,1,.31,0c.29.06.36.2.38.5s0,.54,0,1.93v1.57a19.12,19.12,0,0,1-.05,1.93c0,.26-.08.46-.26.49a1.17,1.17,0,0,1-.26,0c-.06,0-.07,0-.07,0s0,.08.14.08l.51,0h.36l.91,0,1.48,0c.47,0,.5,0,.56-.24a6,6,0,0,0,.14-.89C188.33,89.76,188.32,89.73,188.27,89.73Zm4.41-4.55-.22,0a3.65,3.65,0,0,1-.57,0h-3a5.82,5.82,0,0,1-.61,0,2.19,2.19,0,0,1-.35-.09s-.07.1-.08.15-.17.74-.17.82a.06.06,0,0,0,.06.06s.06,0,.08-.07a.72.72,0,0,1,.12-.24c.12-.18.3-.23.79-.24l1.14,0v3.18c0,.73,0,1.33,0,1.64s-.07.38-.23.41a.93.93,0,0,1-.23,0s-.07,0-.07.05,0,.07.13.07l.81,0c.05,0,.54,0,1,0,.09,0,.13,0,.13-.07a.06.06,0,0,0-.06-.06l-.36,0c-.24,0-.28-.17-.3-.4s0-.91,0-1.64V85.58l1,0c.75,0,.92.18,1,.42v.08c0,.1,0,.13.07.13s.07,0,.07-.1,0-.63,0-.86C192.71,85.22,192.71,85.18,192.68,85.18Zm2.64,0-1,0-.91,0c-.09,0-.13,0-.13.06a.09.09,0,0,0,.06.07h.27c.26,0,.31.16.32.42s0,.46,0,1.64v1.33c0,.73,0,1.33,0,1.64s-.06.37-.21.4a1,1,0,0,1-.24,0,.06.06,0,0,0-.06.06s0,.07.12.07l.48,0h.32l.64,0c.34,0,.76,0,1.1,0a3.15,3.15,0,0,0,2.38-.88,3,3,0,0,0,.84-2.13,2.65,2.65,0,0,0-.76-1.92A4.24,4.24,0,0,0,195.32,85.23Zm2.53,4.83a2.64,2.64,0,0,1-1.84.68c-.92,0-1.2-.16-1.3-.3a1.51,1.51,0,0,1-.09-.54c0-.15,0-.85,0-1.65V85.71a.14.14,0,0,1,.1-.15,2,2,0,0,1,.48,0,3.27,3.27,0,0,1,2.54.84,2.66,2.66,0,0,1,.74,1.9A2.58,2.58,0,0,1,197.85,90.06Zm2.55-.1a.48.48,0,0,0-.49.49.47.47,0,0,0,.48.49.49.49,0,0,0,.5-.52A.45.45,0,0,0,200.4,90ZM74.24,33.63h-10l-5.45-1.87V44.25c0,7.06,0,15.09-2.7,21.43l.42.23c6.79-6,7-14.9,7-21.69v-.53a16.58,16.58,0,0,0,2.07-1.2V50h.09a9.28,9.28,0,0,0,1-.08v6.83a6.73,6.73,0,0,0-1.2,1.09l5.23,2.63.62-1.85h7.38l-1.77,2H63.55l.3,1.42H83.91c.52,0,.9-.56,1-1-1-1-4.75-1.85-5.5-2.45h8.27c-.34,2.18-.83,3.16-1.35,3.5l-7.29.81v.45c1.31.26,5.06.16,5.59.76a2.26,2.26,0,0,1,.6,1.91c2,0,2.87,0,4-.64,1.5-.86,2.14-2.84,2.67-6.4.67-.12.24-.32,0-.64l-2.55-3.27-2.25,2.1h-16V51.75H84.68c-.11,1.09-.26,1.32-.45,1.47a2.51,2.51,0,0,1-1.22.19c-.53,0-4.15-.07-5.05-.15a7,7,0,0,0-4.32-1.39l-.33.19A9.12,9.12,0,0,1,75,55.93c2.06,1.46,4.2-.38,3.41-2a3.38,3.38,0,0,1,1.76.86c.45.56,2.76.75,2.76,1.84,2,0,3.19,0,4.24-.56,1.2-.72,1.47-1.65,1.65-4a2,2,0,0,0,1.35-.6l-4.26-3.12-1.85,2H76a9,9,0,0,0,1.32-.41c.82,0,1.24-.34,1.35-.79l-2.93-.64a1.56,1.56,0,0,0,.49-.41H91.13c.52,0,.9-.19,1-.6-1-.82-2.29-1.84-3.11-2.44h.45c.52,0,.9-.19,1-.6-1-.82-2-1.88-2.67-2.33h1.7c.52,0,.9-.18,1-.6-1-.82-2-1.87-2.67-2.32h2.41c.53,0,.9-.19,1-.6a36.74,36.74,0,0,0-4.49-3l-1,2.52H82.05c1.76-.9,1.91-3.39-3.6-3l-.3.19c.18.23.41.16.6.5L74,35.05l16.81-.37c.52,0,.94-.18,1-.6-1.65-1.54-4.47-3.86-4.47-3.86l-2.47,3.41H77.39c1.69-1.39,1.24-4.73-5.1-3.64l-.26.23A7.59,7.59,0,0,1,74.24,33.63Zm9.08,5.56h4l-1.61,1.87H83.32Zm0,2.92h4L85.68,44H83.32Zm0,2.93h4.83L86.5,47H83.32Zm-5.78-8.67c.83.08,1.17-.07,1.32-.34a5.34,5.34,0,0,1,.49,1.84,2.68,2.68,0,0,0,.45.27h-3L76.42,38A19.65,19.65,0,0,0,77.54,36.37Zm-1.23,2.82h2.62v1.87H76.31Zm0,2.92h2.62V44H76.31Zm0,2.93h2.62v2H76.31Zm-12.8-2.81V35.05h4A27.15,27.15,0,0,1,63.51,42.23Zm10.1,8.1H71.67l-3-1.12c1-.15,1.18-.3,1.22-.38V42.94l.22.19A18.57,18.57,0,0,0,72,42.08v7.2h.75a6.91,6.91,0,0,0,.94-.07C73.68,49.62,73.64,50,73.61,50.33Zm-3.68-7.69V39.83c.67-.15,1-.38,1.16-.72l-1.2-.45c.38-.45.75-.94,1.13-1.46.82.11,1.35-.15,1.53-.56l-4.2-1.59h5.37A18.18,18.18,0,0,1,69.93,42.64ZM94.06,65.46l.22.3c7-2.85,9.57-6.84,10.47-11.16h6v9.69h.94c2.55,0,4.13-1.05,4.13-1.35V54.6h6.45v4.48c0,.45-.15.71-.71.71-.75,0-4.9-.19-4.9-.19v.49c1.8.34,3.21.94,3.77,1.73a8.18,8.18,0,0,1,.83,3.83c5.66-.49,6.45-2.44,6.45-6V42.19a2.41,2.41,0,0,0,1.32-.71l-4.81-3.68-2.32,2.59H114a46,46,0,0,0,7.39-3.75,2.16,2.16,0,0,0,1.5-.53l-4.73-4-2.77,2.74H108.5a31.36,31.36,0,0,0,2.24-2.41c1.09.08,1.39-.11,1.54-.52L104.56,30c-1.87,5.26-5.79,11.22-10.1,14.41l.26.3A25.64,25.64,0,0,0,99.91,42v6.68C99.91,54.57,99.27,60.69,94.06,65.46Zm21.78-23.65h6.45v4.88h-6.45Zm0,6.3h6.45v5.08h-6.45Zm-5.07,5.08h-5.83a23,23,0,0,0,.3-4.14v-.94h5.53Zm0-6.5h-5.53V41.81h5.53Zm-2.88-10.48h7.45a26.42,26.42,0,0,1-2.63,4.18H106l-2.56-.87C104.94,38.4,106.69,37.53,107.89,36.21Zm29,27.48V38.47A40.83,40.83,0,0,1,142,46.84a46.11,46.11,0,0,1-5.08,13.33l.37.26a29.89,29.89,0,0,0,6.59-7.88c.26.79.45,1.54.63,2.25,2.86,2.85,5.82-1.65,1.84-8.26a64.91,64.91,0,0,0,2.07-8.14c1.12,2,3.12,4.2,3.87,6.45-1,5.71-3.87,11.64-6.76,16.22l.37.3c3.12-2.63,6.5-5.93,8.23-9.46.37,1.65.64,3.19.86,4.5,2.85,3.53,6.31-2,1.21-10.58a70.83,70.83,0,0,0,2.14-8.56,5,5,0,0,0,1.34-.26V59.57c0,.52-.19.86-.9.86-1.12,0-6.19-.3-6.19-.3v.49c2.44.37,3.34.94,4.17,1.69s1.05,1.83,1.23,3.45c6-.49,6.94-2.37,6.94-5.74V34.68a2.69,2.69,0,0,0,1.51-.78l-4.77-3.76-2.36,2.67h-22l-5.56-2.22V65.65h.87C134.85,65.65,136.92,64.37,136.92,63.69Zm0-29.47h22.76l-.36,2.08L153,35.06a22.58,22.58,0,0,1-.12,5.89c-.9-1-3-2-4.1-3l-.34.18.15-.78c1-.12,2.41-.45,1.43-.94l-6.83-1.32c1,2.11-.22,4.43-.49,6.87a51.68,51.68,0,0,0-5.49-3.94l-.3.19Zm32.78,30a1.73,1.73,0,0,0,1-1.1c4.66-3.22,7.45-4.77,9.39-6.57l0-.34c-5.19,1.37-10.31,1.44-12.54,1.78Zm-.4-17.56c1-.65,1.59-1.26,2.48-1.87-1.38,2.56-1.9,4.16-3.13,5.3a5.93,5.93,0,0,1-1.42.58l2.12,4.75c.28-.11.53.44.74.18a98.09,98.09,0,0,0,10.33-6.1l0-.42c-3.42.5-7.23,1.28-9.7,1.55a45.64,45.64,0,0,0,9-9.76c.71.08,1.17-.19.62-.9l-5.43-1.73c.2.82-1.6,3.51-1.52,3.34-1.48.15-2.59.26-3.79.34a43.08,43.08,0,0,0,6.81-8.25c.7,0,1.06-.34,1.16-.72l-6.31-1.77c-.38,3-2.22,8.6-3.6,10.28a4,4,0,0,1-1.13.5l2.05,5.35A1.91,1.91,0,0,0,169.3,46.69Zm24-2.6c2-2.06,4.6-4.39,5.84-7,.84-.08,1.2-.19,1.44-.61l-4.12-4-2.62,2.64h-6.16c.36-.65,1-1.34,1.37-2,.81.08,1.27-.23,1.45-.72l-6.11-2.3a36.6,36.6,0,0,1-5.81,14.69l.39.3a24.61,24.61,0,0,0,5.78-5.26,55.32,55.32,0,0,0,3.44,4.38,63.68,63.68,0,0,1-10.36,7.85l.21.46a29.29,29.29,0,0,0,3.57-1.22V65.48h.85c2.44,0,3.88-.84,3.88-1.15v-1.9h8.17v2.62c2.49,0,4.29-.88,4.29-1.06V53.46a1.41,1.41,0,0,1,1-.77h0l-1-.59-.81-.47-2-1.12c-.25-.1-.53-.32-.92-.48l-1.7,2.73h-6.61l-2.81-2.31a29.55,29.55,0,0,0,6.31-3.63,53,53,0,0,0,6,3.35l3.75,1.76a4.14,4.14,0,0,1,.49.23h0c.28-2.56,1.13-3.32,3.14-4.2l0-.42A50.38,50.38,0,0,1,193.3,44.09Zm-7,10.1h8.17v7.17h-8.17Zm3.47-12a53.71,53.71,0,0,1-4.42-3.07,23.35,23.35,0,0,0,1.69-2.44H194C193.17,38.69,191.12,40.27,189.81,42.14Z"/></svg>